HIERARCHY
ROOT root
{
	OFFSET 0.000000 0.000000 0.000000
	CHANNELS 6 Xposition Yposition Zposition Zrotation Yrotation Xrotation
	JOINT lhip
	{
		OFFSET 0.058581 -0.082280 -0.017664
		CHANNELS 3 Zrotation Yrotation Xrotation
		JOINT lknee
		{
			OFFSET 0.043451 -0.386469 0.008037
			CHANNELS 3 Zrotation Yrotation Xrotation
			JOINT lankle
			{
				OFFSET -0.014790 -0.426874 -0.037428
				CHANNELS 3 Zrotation Yrotation Xrotation
				JOINT ltoe
				{
					OFFSET 0.041054 -0.060286 0.122042
					CHANNELS 3 Zrotation Yrotation Xrotation
					End Site
					{
						OFFSET 0.000000 0.000000 0.000000
					}
				}
			}
		}
	}
	JOINT rhip
	{
		OFFSET -0.060310 -0.090513 -0.013543
		CHANNELS 3 Zrotation Yrotation Xrotation
		JOINT rknee
		{
			OFFSET -0.043257 -0.383688 -0.004843
			CHANNELS 3 Zrotation Yrotation Xrotation
			JOINT rankle
			{
				OFFSET 0.019056 -0.420046 -0.034562
				CHANNELS 3 Zrotation Yrotation Xrotation
				JOINT rtoe
				{
					OFFSET -0.034840 -0.062106 0.130323
					CHANNELS 3 Zrotation Yrotation Xrotation
					End Site
					{
						OFFSET 0.000000 0.000000 0.000000
					}
				}
			}
		}
	}
	JOINT lowerback
	{
		OFFSET 0.004439 0.124404 -0.038385
		CHANNELS 3 Zrotation Yrotation Xrotation
		JOINT upperback
		{
			OFFSET 0.004488 0.137956 0.026820
			CHANNELS 3 Zrotation Yrotation Xrotation
			JOINT chest
			{
				OFFSET -0.002265 0.056032 0.002855
				CHANNELS 3 Zrotation Yrotation Xrotation
				JOINT lowerneck
				{
					OFFSET -0.013390 0.211636 -0.033468
					CHANNELS 3 Zrotation Yrotation Xrotation
					JOINT upperneck
					{
						OFFSET 0.010113 0.088937 0.050410
						CHANNELS 3 Zrotation Yrotation Xrotation
						End Site
						{
							OFFSET 0.000000 0.000000 0.000000
						}
					}
				}
				JOINT lclavicle
				{
					OFFSET 0.071702 0.114000 -0.018898
					CHANNELS 3 Zrotation Yrotation Xrotation
					JOINT lshoulder
					{
						OFFSET 0.122921 0.045205 -0.019046
						CHANNELS 3 Zrotation Yrotation Xrotation
						JOINT lelbow
						{
							OFFSET 0.255332 -0.015649 -0.022946
							CHANNELS 3 Zrotation Yrotation Xrotation
							JOINT lwrist
							{
								OFFSET 0.265709 0.012698 -0.007375
								CHANNELS 3 Zrotation Yrotation Xrotation
								End Site
								{
									OFFSET 0.000000 0.000000 0.000000
								}
							}
						}
					}
				}
				JOINT rclavicle
				{
					OFFSET -0.082954 0.112472 -0.023707
					CHANNELS 3 Zrotation Yrotation Xrotation
					JOINT rshoulder
					{
						OFFSET -0.113228 0.046853 -0.008472
						CHANNELS 3 Zrotation Yrotation Xrotation
						JOINT relbow
						{
							OFFSET -0.260127 -0.014369 -0.031269
							CHANNELS 3 Zrotation Yrotation Xrotation
							JOINT rwrist
							{
								OFFSET -0.269108 0.006794 -0.006027
								CHANNELS 3 Zrotation Yrotation Xrotation
								End Site
								{
									OFFSET 0.000000 0.000000 0.000000
								}
							}
						}
					}
				}
			}
		}
	}
}
MOTION
Frames: 7
Frame Time: 0.033333
-0.001059 0.665183 1.082332 35.214699 -4.343871 96.177088 4.541748 -0.946082 -31.546651 -6.549493 -0.814627 39.559614 -3.756946 -1.081718 4.865248 0.000000 -0.000000 0.000000 -7.604110 -5.837355 -3.695922 -0.685544 -1.742905 7.771530 10.935622 -7.008938 13.153074 0.000000 -0.000000 0.000000 0.719652 10.725587 7.718496 -2.771253 1.448911 9.054449 -3.484159 4.511625 -5.855440 -2.098803 6.847949 12.734338 0.800862 10.634035 -0.776349 -4.693514 -5.871847 7.804181 -21.225256 37.793311 25.642495 -6.011702 -17.546467 43.304645 3.215770 -35.621266 -20.355537 -7.162939 30.288170 -4.855720 10.542994 34.460761 -5.823614 -57.903050 78.627200 -65.870363 -44.738501 32.071224 -32.334159 
0.002637 0.668316 1.096370 34.931650 -3.699452 97.297403 4.237040 -1.343490 -34.313659 -6.015855 0.860116 40.564758 -2.993032 -0.063802 3.410899 0.000000 -0.000000 0.000000 -8.035075 -5.874477 -3.720368 -0.433269 0.615128 6.748658 12.721863 -5.534305 14.803016 0.000000 -0.000000 0.000000 1.736018 11.164196 7.901709 -3.897148 2.153897 10.162866 -4.055463 5.581299 -6.650285 -1.337976 5.958444 14.694852 -0.065865 9.482739 -1.535180 0.558463 -5.954516 7.748865 -21.644028 41.684912 24.007964 -5.676095 -17.940987 42.895851 2.697275 -35.247223 -20.451821 -16.024025 30.946902 -5.571994 -0.204764 31.390981 -13.652734 -57.089857 79.275546 -64.817039 -48.394779 32.308363 -32.863622 
0.007448 0.669623 1.099120 35.503080 -2.934790 97.920261 4.073370 -2.025365 -36.620154 -6.153434 1.611766 41.625546 -1.861714 0.768301 2.633492 0.000000 -0.000000 0.000000 -7.935929 -4.953935 -4.993682 0.036666 3.527882 11.818810 10.962059 -5.971022 9.952804 0.000000 -0.000000 0.000000 2.202454 11.450221 8.265588 -4.273533 2.527228 9.874395 -3.300810 5.745884 -6.238621 -0.790616 4.793996 15.929022 -1.540987 9.573202 -2.117004 5.164920 -4.854901 8.444050 -23.512468 43.899461 22.618985 -5.782467 -19.462508 44.855807 -0.667841 -33.996748 -21.147036 -24.543151 29.466463 -8.372531 -2.484490 31.941063 -15.887621 -43.535350 75.478345 -46.957313 -44.719695 31.323118 -34.243216 
0.013711 0.668388 1.092186 36.860160 -2.141721 97.734574 3.560452 -2.514668 -37.696916 -6.948326 0.830323 42.455331 -1.389598 2.018725 1.977064 0.000000 -0.000000 0.000000 -7.930083 -4.086070 -4.911352 1.499377 5.144407 17.353973 7.984583 -8.004698 5.127263 0.000000 -0.000000 0.000000 2.882260 11.565954 9.781741 -4.200948 2.688161 7.671149 -2.231107 5.491028 -4.386731 -1.536367 2.399209 16.515598 -2.622599 10.547283 -2.075463 8.148618 -4.192797 9.019273 -25.460659 45.186687 21.632780 -5.790345 -18.384054 47.782784 1.885692 -31.970084 -25.320172 -31.300291 27.418906 -11.679136 -4.117773 33.567612 -16.633573 -26.630566 72.221401 -28.172384 -50.099486 28.536613 -37.053292 
0.021510 0.666450 1.075219 38.277476 -1.197798 97.400662 3.093136 -2.474364 -38.511067 -8.086733 -0.140153 43.772998 -0.139602 3.114519 -0.022720 0.000000 -0.000000 0.000000 -8.191929 -4.261138 -4.132362 3.511001 5.424369 21.806201 5.844060 -9.627716 0.253117 0.000000 -0.000000 0.000000 3.725120 11.148901 10.510802 -3.570349 2.300553 6.930316 -1.907051 5.556788 -3.547172 -1.693535 -0.084481 16.704105 -3.576495 11.743322 -0.300471 9.121077 -3.048489 10.699758 -28.069986 46.055746 19.698222 -5.691260 -17.489982 49.859835 5.330080 -29.751535 -29.147322 -33.738923 27.103871 -12.612667 -3.812451 39.127275 -18.932945 -23.526373 67.043760 -22.294577 -58.002670 26.008789 -38.172852 
0.029840 0.664510 1.048658 39.023931 -0.078488 97.350787 2.665614 -1.739158 -39.702260 -9.074497 -0.671226 46.263885 1.462255 4.015630 -2.754772 0.000000 -0.000000 0.000000 -8.831051 -5.354765 -3.817535 5.350425 4.116512 25.408962 4.404326 -10.100802 -5.622861 0.000000 -0.000000 0.000000 4.967821 11.012158 10.827636 -3.155602 2.266690 6.757706 -2.172879 5.843295 -2.489184 -1.099342 -1.750355 16.965577 -3.810812 11.968707 0.400504 8.295837 -1.071122 12.243280 -30.783697 46.162761 17.162930 -5.961070 -19.418664 49.702976 10.547339 -25.882446 -32.810421 -32.625673 28.139467 -12.237800 -0.458887 44.891772 -20.405209 -31.918134 66.889218 -31.059417 -67.643356 22.021640 -37.797500 
0.038221 0.665006 1.013091 38.326104 0.907159 97.400791 2.251770 -0.463344 -41.360529 -9.884818 0.011697 50.410341 3.370480 5.300086 -6.461261 0.000000 -0.000000 0.000000 -10.262933 -7.406949 -5.128262 6.004494 0.762464 29.646708 2.688549 -11.393093 -9.923536 0.000000 -0.000000 0.000000 6.525237 11.206916 12.402840 -2.942984 3.124509 6.765460 -3.007578 6.053582 -2.964913 -1.141606 -6.123696 17.304347 -4.741080 13.109564 3.042514 3.781165 1.575004 14.598312 -33.028658 46.352603 13.777342 -6.448599 -25.966593 45.734412 14.553908 -21.088244 -33.418059 -28.300595 29.772528 -9.533753 -2.495506 49.417365 -23.847192 -34.135005 70.271496 -35.161820 -74.644499 20.683115 -36.116018 
